PathFileType	4	(X/Y/Z)	\\Move.snu.ac.kr\motion\Animal\091204_091205_Bird\091205_bird\Project 2\Capture day 2\Session 1\pigeon_015.trc
DataRate	CameraRate	NumFrames	NumMarkers	Units	OrigDataRate	OrigDataStartFrame	OrigNumFrames
240.0	240.0	22	14	mm	240.0	199	2522
Frame#	Time	14MarkersBird:Head			14MarkersBird:C_back			14MarkersBird:Spine			14MarkersBird:L-shoulder			14MarkersBird:L-elbow			14MarkersBird:L-wrist			14MarkersBird:L-hand			14MarkersBird:R-shoulder			14MarkersBird:R-elbow			14MarkersBird:R-Wrist			14MarkersBird:R-hand			14MarkersBird:C_Tail			14MarkersBird:L-Tale			14MarkersBird:R-Tale			
		X1	Y1	Z1	X2	Y2	Z2	X3	Y3	Z3	X4	Y4	Z4	X5	Y5	Z5	X6	Y6	Z6	X7	Y7	Z7	X8	Y8	Z8	X9	Y9	Z9	X10	Y10	Z10	X11	Y11	Z11	X12	Y12	Z12	X13	Y13	Z13	X14	Y14	Z14	

1315	5.475	-1100.87878	1129.72754	-389.17194	-1042.49500	1137.46179	-401.44904	-990.08655	1131.07617	-411.48273	-1068.54871	1130.11023	-372.17682	-1043.33911	1120.66589	-351.75192	-1084.14905	1107.49976	-346.37390	-1099.98669	1085.79883	-346.17325	-1077.98157	1122.17407	-417.03839	-1066.89600	1110.08801	-440.28244	-1102.27075	1095.69275	-425.48669	-1126.28625	1065.63513	-419.84256	-883.42676	1064.21362	-415.46460	-928.35150	1092.05066	-330.03070	-953.06525	1066.72290	-501.61520	
1316	5.479	-1113.85754	1125.30481	-386.00461	-1055.83997	1133.84216	-398.60165	-1003.15491	1127.12061	-408.62360	-1081.32751	1126.60193	-369.30981	-1052.33435	1119.26489	-350.65662	-1094.48657	1111.09265	-343.45905	-1110.94031	1089.49963	-345.86557	-1090.78345	1118.59851	-414.28680	-1075.90356	1109.10815	-438.92792	-1112.86584	1098.88586	-424.84433	-1136.56348	1068.51367	-416.56653	-896.29803	1060.97302	-413.32114	-941.10016	1086.65479	-327.80630	-966.13684	1061.72534	-498.28656	
1317	5.483	-1127.07300	1120.88745	-382.87067	-1069.40308	1129.73474	-395.74271	-1016.38794	1123.00525	-405.66684	-1094.19299	1122.82825	-366.27618	-1061.49670	1119.42358	-350.08035	-1103.69104	1115.73206	-338.86108	-1119.78857	1093.93420	-340.32043	-1103.57788	1114.75000	-411.63101	-1084.46313	1109.64319	-437.52426	-1123.44226	1102.66357	-426.42020	-1145.85474	1071.14954	-418.76605	-909.69299	1056.66663	-410.70377	-954.43634	1081.55249	-325.12094	-980.06677	1056.46411	-495.09769	
1318	5.488	-1140.44458	1116.52283	-379.84048	-1083.08936	1125.23340	-392.96542	-1029.70520	1118.75757	-402.63712	-1107.10938	1118.68359	-363.41016	-1071.43494	1120.63428	-350.36786	-1112.22241	1120.90686	-334.04407	-1126.19336	1098.30115	-331.53687	-1116.31177	1110.75110	-408.94156	-1093.03491	1111.37561	-435.12115	-1133.94849	1106.77649	-429.08340	-1153.78906	1073.37573	-424.98740	-923.52032	1051.32483	-407.64709	-968.10370	1076.98523	-322.03134	-994.33801	1051.73828	-492.26254	
1319	5.492	-1153.88306	1112.23962	-376.96771	-1096.77539	1120.42798	-390.29614	-1043.04297	1114.34290	-399.53934	-1120.19678	1114.43469	-360.75110	-1082.47681	1122.04138	-351.79367	-1120.53625	1126.31360	-330.31750	-1129.87695	1103.08228	-322.15689	-1128.98694	1106.85864	-406.03110	-1102.14001	1113.72766	-430.97620	-1144.09766	1111.19702	-431.68701	-1159.98608	1076.17883	-433.55582	-937.63019	1045.22034	-404.20724	-981.95325	1073.10840	-318.55322	-1008.52203	1048.21533	-489.99585	
1320	5.496	-1167.31921	1108.06628	-374.28363	-1110.38586	1115.20532	-387.64313	-1056.36487	1109.70081	-396.37872	-1133.42932	1110.23816	-358.27933	-1094.63281	1122.70020	-354.32962	-1129.06567	1131.48132	-328.56363	-1131.29248	1109.18982	-314.72092	-1141.64783	1103.30725	-402.76169	-1112.15344	1115.93994	-424.91357	-1153.63342	1115.82532	-433.08466	-1164.29285	1080.99573	-442.69031	-951.80170	1038.82751	-400.46060	-996.00629	1069.88574	-314.68161	-1022.43970	1046.11792	-488.34323	
1321	5.500	-1180.72693	1104.02795	-371.79633	-1124.28687	1110.02185	-384.87421	-1069.63354	1104.80115	-393.17917	-1146.74072	1106.07434	-355.96100	-1107.67737	1122.15552	-357.71902	-1138.19958	1135.77222	-329.00970	-1131.98132	1117.08582	-310.96011	-1154.33740	1100.07532	-399.17496	-1123.17163	1117.25757	-417.33282	-1162.63635	1120.34607	-432.38663	-1166.95300	1088.90576	-450.58185	-965.76642	1032.64075	-396.46777	-1010.39594	1067.16589	-310.43204	-1036.15662	1045.21326	-487.13123	
1322	5.504	-1194.11340	1100.11438	-369.49118	-1138.08508	1104.89563	-382.04370	-1082.80542	1099.66907	-389.97873	-1160.07996	1101.88660	-353.73865	-1121.32471	1120.29102	-361.41956	-1148.17859	1138.71863	-331.12329	-1133.98682	1126.43506	-311.34793	-1167.06946	1096.83875	-395.49670	-1135.06702	1117.14771	-408.96436	-1171.48743	1124.31934	-429.38654	-1168.65002	1100.06860	-455.42169	-979.30530	1026.96851	-392.25482	-1025.20520	1064.87012	-305.88159	-1049.82788	1045.06262	-486.07846	
1323	5.508	-1207.48254	1096.25378	-367.32529	-1151.49109	1099.76050	-379.19669	-1095.87073	1094.37830	-386.80075	-1173.39673	1097.61694	-351.55359	-1135.56348	1116.28540	-363.89490	-1158.99414	1140.27856	-333.88892	-1138.81543	1136.24854	-315.30695	-1179.82080	1093.25720	-392.00171	-1147.61438	1115.47217	-400.64465	-1180.61035	1127.40869	-424.67145	-1170.44360	1113.57275	-455.74130	-992.33240	1021.86609	-387.86472	-1040.36121	1063.05627	-301.18329	-1063.54663	1045.24805	-484.93219	
1324	5.512	-1220.81152	1092.32507	-365.22076	-1164.51270	1094.62732	-376.33835	-1108.82593	1088.97180	-383.65247	-1186.64111	1093.20728	-349.34720	-1150.19141	1111.59277	-364.88077	-1170.46692	1140.74390	-336.26239	-1146.93347	1145.20837	-321.71191	-1192.56433	1089.21765	-388.87875	-1160.65173	1112.49463	-393.13025	-1190.31738	1129.51306	-419.25665	-1173.54236	1127.71204	-451.11945	-1004.84747	1017.30084	-383.39786	-1055.67639	1061.73108	-296.54514	-1077.33020	1045.33301	-483.51511	
1325	5.517	-1234.06104	1088.21240	-363.09790	-1177.21423	1089.51672	-373.46957	-1121.60425	1083.19360	-380.60336	-1199.76257	1088.59949	-347.06079	-1164.96045	1107.16907	-364.33649	-1182.41028	1140.37671	-337.39471	-1157.97412	1152.04749	-329.02957	-1205.31641	1084.77246	-386.21396	-1174.18335	1108.67224	-386.95068	-1200.78564	1130.59814	-414.17807	-1179.04700	1140.54578	-442.67093	-1016.84052	1013.36548	-378.99451	-1070.93591	1060.63794	-292.17279	-1091.15369	1044.72974	-481.73392	
1326	5.521	-1247.19653	1083.87341	-360.92377	-1189.66272	1084.44934	-370.59079	-1134.38281	1077.04858	-377.66235	-1212.71179	1083.73633	-344.63657	-1179.96594	1102.91870	-362.34674	-1194.68811	1139.12122	-336.64224	-1171.17847	1155.96887	-335.20346	-1218.11328	1080.01318	-383.99985	-1188.34363	1104.39258	-382.36581	-1212.08862	1130.39941	-410.31311	-1187.75195	1150.40454	-432.93738	-1028.32166	1010.24780	-374.80112	-1085.93103	1059.30237	-288.23441	-1104.93640	1042.76538	-479.58267	
1327	5.525	-1260.19238	1079.35107	-358.70758	-1201.92505	1079.44568	-367.70267	-1147.18555	1070.88208	-374.75470	-1225.46558	1078.58459	-342.03781	-1195.15491	1098.87366	-359.11685	-1207.15247	1136.61804	-333.56873	-1185.71960	1156.90894	-337.87155	-1230.96155	1075.02844	-382.12280	-1203.13330	1099.87573	-379.45438	-1224.21729	1128.37744	-408.33026	-1199.92761	1156.08508	-425.14590	-1039.42200	1007.98926	-370.93997	-1100.46802	1057.31177	-284.81046	-1118.56653	1038.90125	-477.11093	
1328	5.529	-1273.03955	1074.71936	-356.45929	-1214.06787	1074.52625	-364.80579	-1159.90198	1064.84534	-371.86945	-1238.24292	1073.29675	-339.32303	-1210.02991	1094.97009	-354.80243	-1219.61523	1132.45215	-327.99118	-1200.83337	1155.30701	-335.09607	-1243.83411	1069.92444	-380.38361	-1218.16296	1095.20789	-378.21579	-1237.10144	1123.96411	-408.60471	-1215.18140	1156.78625	-422.04291	-1050.41565	1006.31079	-367.46747	-1114.43323	1054.50732	-281.86172	-1131.98987	1032.92554	-474.38843	
1329	5.533	-1285.76624	1070.05078	-354.17398	-1226.15845	1069.71167	-361.90067	-1172.52466	1059.01953	-369.01761	-1251.26868	1068.33813	-336.67764	-1223.94250	1090.95715	-349.43976	-1231.93286	1126.36328	-319.99649	-1215.91077	1151.45544	-326.15460	-1256.71143	1064.79407	-378.60019	-1232.81506	1090.33228	-378.56393	-1250.67419	1116.81995	-411.09769	-1232.63550	1152.07385	-424.73889	-1061.63928	1004.63177	-364.37366	-1127.84570	1050.88696	-279.23697	-1145.26062	1025.10828	-471.49170	
1330	5.537	-1298.43665	1065.42542	-351.83612	-1238.26367	1065.02271	-358.98795	-1185.09595	1053.49854	-366.20667	-1263.85938	1063.79932	-334.17938	-1236.63733	1086.57849	-342.96152	-1244.18823	1118.23743	-309.96848	-1230.68640	1145.02722	-311.86026	-1269.64148	1059.64734	-376.68643	-1246.75842	1084.99963	-380.21851	-1264.96997	1106.92896	-415.20474	-1251.49207	1141.92896	-432.27618	-1073.37305	1002.24500	-361.62628	-1140.83276	1046.39099	-276.72424	-1158.49866	1016.21240	-468.49219	
1331	5.542	-1311.13037	1060.91479	-349.42822	-1250.45056	1060.47961	-356.06818	-1197.66040	1048.37781	-363.44391	-1276.42834	1059.15515	-331.60767	-1248.44727	1081.62988	-335.29257	-1256.81506	1108.01575	-298.64807	-1245.46826	1135.27759	-294.27979	-1282.73035	1054.43372	-374.63364	-1260.26721	1078.84875	-382.64511	-1280.15710	1094.56775	-419.78180	-1271.44128	1126.77551	-442.17743	-1085.77612	998.55963	-359.20374	-1153.54553	1040.85132	-274.15002	-1171.78076	1007.26178	-465.45380	
1332	5.546	-1323.92029	1056.55518	-346.95810	-1262.78552	1056.10339	-353.14191	-1210.26270	1043.75146	-360.73657	-1289.10803	1054.34863	-328.88528	-1260.34778	1075.88208	-326.59714	-1270.48853	1095.69434	-287.09366	-1261.04480	1121.70837	-275.96350	-1296.05042	1049.16772	-372.44351	-1274.07007	1071.62268	-385.21481	-1296.45776	1080.20544	-423.42850	-1292.59473	1107.34265	-451.46069	-1098.90173	993.30914	-357.08646	-1166.06909	1034.12488	-271.48444	-1185.04871	999.13507	-462.42465	
1333	5.550	-1336.84473	1052.35266	-344.44751	-1275.33594	1051.91443	-350.20984	-1222.94751	1039.71448	-358.09183	-1301.95520	1049.48792	-325.97760	-1273.54614	1069.03247	-317.42752	-1285.81677	1081.42517	-276.47989	-1278.27747	1104.50122	-259.16931	-1309.57178	1044.01685	-370.10480	-1288.84216	1063.33887	-387.38522	-1313.96655	1064.41833	-424.84531	-1315.08997	1084.57495	-457.50223	-1112.72974	986.65448	-355.24286	-1178.39771	1026.27405	-268.86334	-1198.12451	992.25879	-459.42773	
1334	5.554	-1349.90552	1048.30103	-341.89224	-1288.16699	1047.93286	-347.27246	-1235.75867	1036.36060	-355.51697	-1315.06702	1044.73438	-322.90201	-1287.68359	1060.98877	-308.40094	-1303.01233	1065.67090	-267.88406	-1297.70874	1084.41772	-245.56851	-1323.17419	1039.21594	-367.61972	-1304.79004	1054.24695	-388.68054	-1332.48804	1047.89941	-423.11118	-1338.68152	1059.73853	-458.51212	-1127.16333	979.16296	-353.65115	-1190.48401	1017.64685	-266.54053	-1210.81836	986.62390	-456.45676	
1335	5.558	-1363.09253	1044.37646	-339.26883	-1301.30859	1044.17017	-344.34229	-1248.73035	1033.74719	-353.02084	-1328.41211	1040.24915	-319.78223	-1302.77930	1052.08484	-300.57385	-1321.80945	1049.24280	-262.13129	-1319.33777	1062.50793	-236.31519	-1336.73975	1034.90967	-365.00882	-1321.59155	1044.70178	-388.67801	-1351.50024	1031.55127	-417.87735	-1362.61523	1034.48413	-453.68240	-1142.01746	971.61505	-352.33813	-1202.30029	1008.81628	-264.77094	-1223.03760	982.05322	-453.50790	
1336	5.563	-1376.39929	1040.53577	-336.56461	-1314.66443	1040.63062	-341.66382	-1261.94482	1031.63354	-350.67197	-1341.89563	1036.09436	-316.77026	-1318.76697	1042.64880	-294.86325	-1341.56506	1033.18884	-259.64508	-1342.54968	1039.98340	-232.15417	-1350.25183	1031.05920	-362.29648	-1338.60303	1035.17212	-387.19119	-1370.27954	1016.47449	-409.45612	-1385.85168	1010.64264	-443.20804	-1157.04712	964.70789	-351.37622	-1213.88892	1000.38123	-263.66626	-1234.84399	978.38745	-450.60770	
